<?xml version="1.0" encoding="UTF-8"?>
<!-- Created with Inkscape (http://www.inkscape.org/) -->
<svg class="favicon-15984611" width="128.75mm" height="83.158mm" version="1.1" viewBox="0 0 128.75 83.158" xmlns="http://www.w3.org/2000/svg" xmlns:cc="http://creativecommons.org/ns#" xmlns:dc="http://purl.org/dc/elements/1.1/" xmlns:rdf="http://www.w3.org/1999/02/22-rdf-syntax-ns#">
 <style>
  svg.favicon-15984611 { 
    filter: drop-shadow(0px 0px 1px rgba(55,55,55,1));
  }
  path {
      fill: #f39200;
  }
  @media (prefers-color-scheme: dark) {
    path {
      fill: #ffffff;
    }
  }
  @media (prefers-color-scheme: light) {
    path {
      fill: #404040;
    }
  }
  </style>
 <metadata>
  <rdf:RDF>
   <cc:Work rdf:about="">
    <dc:format>image/svg+xml</dc:format>
    <dc:type rdf:resource="http://purl.org/dc/dcmitype/StillImage"/>
    <dc:title/>
   </cc:Work>
  </rdf:RDF>
 </metadata>
 <g transform="translate(-8.9499 -130.36)">
  <g transform="matrix(.26458 0 0 .26458 -12.646 130.36)">
   <g id="background-logo" transform="matrix(1.9693 0 0 1.9693 324.94 175.54)">
    <rect x="-325" y="-260" width="650" height="520" rx="0" ry="0" fill-opacity="0" style="paint-order:stroke"/>
   </g>
   <g id="logo-logo" transform="matrix(1.4358 0 0 1.4358 324.94 157.15)">
    <g style="paint-order:stroke">
     <g transform="matrix(.27 0 0 -.27 -84.68 -14.25)">
      <path transform="translate(-686.34 -910.54)" d="m665.53 856.89-36.054 44.851 20.82 53.649 56.863 8.801 36.059-44.856-20.817-53.652-56.871-8.793" fill-opacity="0" style="paint-order:stroke"/>
     </g>
     <g transform="matrix(.27 0 0 -.27 -52.99 .56)">
      <path transform="translate(-802.15 -856.4)" d="m792.8 832.3-16.195 20.144 9.351 24.11 25.547 3.949 16.195-20.148-9.351-24.098-25.547-3.957" fill-opacity="0" style="paint-order:stroke"/>
     </g>
     <g transform="matrix(.27 0 0 -.27 -34.02 9.41)">
      <path transform="translate(-871.48 -824.03)" d="m862.13 799.93-16.191 20.144 9.351 24.102 25.551 3.957 16.191-20.16-9.351-24.09-25.551-3.953" fill-opacity="0" style="paint-order:stroke"/>
     </g>
     <g transform="scale(.27 -.27)">
      <path transform="translate(-995.84 -858.44)" d="m1320.8 634.25c-25.27 2.168-55.52 25.578-83.89 18.656-20.9-37.859 36.35-69.113 33.72-82.328-39.09 22.445-98.52 17.082-142.88 84.473-2.93 4.445-7.45 7.531-10.95 11.437-3.52 3.91-6.87 7.91-10.07 12.055-17.6 22.906-17.99 45.18-5.29 60.406 3.17 3.805 7.17 7.168 11.91 10.008 54.41 21.246 118.83-1.25 169.79-25.527 4.35-2.871 8.51-6.051 12.44-9.598 3.94-3.551 7.63-7.461 11.05-11.805 4.19-4.285 8.54-8.468 13.02-12.488-3.11-4.785-7.45-6.867-12.31-8.012-4.86-1.156-10.22-1.383-15.38-2.476 2.87-3.02 5.85-5.895 8.84-8.703 8.98-8.426 18.11-16.305 25.44-25.528 3.44-4.011 6.74-8.152 9.92-12.445-4.98 0.75-10.12 1.367-15.36 1.875zm-313.11 185.43c3.86-11.356 8.11-23.797 12.71-37.344-8.31-18.695-16.74-37.652-25.661-57.715-12.234-4.137-24.461-8.242-40.285-13.574 4.637-17.172 8.758-32.481 12.844-47.653 23.457-11.449 44.992-21.992 70.732-34.578-91.853-45.902-222.52 13.993-244.58 109.3-101.95 35.152-217.1 54.067-284.36 156.36-23.297 35.434-42.731 73.403-66.899 115.38 81.395 37.73 158.66 48.62 233 23.02 72.363-24.9 139.24-65.743 213.7-102.12 73.722 45.23 196.25-9.449 238.01-115.53-41.23 6.082-80.1 53.238-119.21 4.457zm-222.84-272.88-18.007 8.035-13.204-14.649 2.075 19.602-18.008 8.035 19.289 4.094 2.074 19.613 9.848-17.09 19.289 4.086-13.203-14.636zm-216.01 144.61-28.75 12.816-21.063-23.379 3.309 31.301-28.742 12.813 30.785 6.531 3.304 31.297 15.719-27.262 30.789 6.516-21.074-23.371zm177.71 482.12 26.285-9.31 16.972 22.11-0.738-27.87 26.289-9.31-26.738-7.91-0.734-27.88-15.789 22.99-26.739-7.93 16.977 22.12zm273.61-126.46 11.24 30.87 9.05-31.59 32.85-1.16-27.25-18.36 9.04-31.594-25.89 20.234-27.25-18.363 11.26 30.883-25.901 20.23zm485.36-459.24c22.99-3.977 44.71-5.227 67.68 4e-3 4.99 1.484 9.85 3.332 14.56 5.543 14.06 6.644 26.48 16.629 35.68 30.093-76.66-33.789-151.56 6.868-193.75 69.192-5.56 4.074-11.15 8.039-16.83 11.902-73.68 50.219-156.97 82.371-253.06 90.414-0.19 3.985-0.4 7.934-0.63 11.863 6.91 45.836 5.89 93.665-4.29 141.68-45.53 214.85-256.61 352.1-471.45 306.56-214.85-45.52-352.1-256.61-306.57-471.45 45.531-214.84 256.61-352.1 471.45-306.56 90.914 19.258 167.94 68.184 223.08 134.48 24.04-18.059 47.21-34.536 69.41-49.383 5.63-3.75 11.19-7.414 16.69-10.957 26.65-23.098 56.96-30.489 88.99-33.84 6.4-0.672 12.89-1.18 19.41-1.609 23.88-1.008 50.17-0.625 71.26-14.836 16.96-9.571 27.89-28.067 35.3-47.871 8.78 31.796-17.46 60.304-41.8 76.933-5.17 2.942-9.06 6.067-12.21 9.836-3.14 3.758-5.53 8.164-7.63 13.641 7.66 3.312 15.26 5.156 22.8 5.812 7.53 0.645 15 0.078 22.41-1.328 4.93-0.937 9.83-2.246 14.75-3.828 12.59-3.77 24.76-8.723 36.51-14.551 5.87-2.922 11.65-6.066 17.26-9.414 4.95-3.098 9.7-6.465 14.38-9.98 35.3-29.7 76.81-59.903 124.91-47.754 20.13 6.211 40.55 20.293 37.65 43.074 0.13-9.715-10.68-13.965-18.82-14.59-6.48-0.828-13.22-0.43-19.96 0.754-53.81 0.059-57.42 53.887-78.06 89.539-3.48 4.555-7.37 9.094-11.36 14.102 5.52-4.188 11.49-7.797 17.79-10.809 4.59-3.184 9.45-5.27 14.45-6.656" fill="#fff" style="paint-order:stroke"/>
     </g>
    </g>
   </g>
  </g>
 </g>
</svg>
