<?xml version="1.0" encoding="UTF-8" standalone="no"?>
<svg
   xmlns:dc="http://purl.org/dc/elements/1.1/"
   xmlns:cc="http://creativecommons.org/ns#"
   xmlns:rdf="http://www.w3.org/1999/02/22-rdf-syntax-ns#"
   xmlns:svg="http://www.w3.org/2000/svg"
   xmlns="http://www.w3.org/2000/svg"
   id="svg1137"
   xml:space="preserve"
   viewBox="0 0 648.6802 504.40101"
   height="504.40103"
   width="648.68018"
   version="1.1"><metadata
   id="metadata1141"><rdf:RDF><cc:Work
       rdf:about=""><dc:format>image/svg+xml</dc:format><dc:type
         rdf:resource="http://purl.org/dc/dcmitype/StillImage" /><dc:title></dc:title></cc:Work></rdf:RDF></metadata>
<desc
   id="desc1108">Created with Fabric.js 3.6.3</desc>
<defs
   id="defs1110">
</defs>
<g
   id="background-logo"
   transform="matrix(1.969278,0,0,1.969278,324.94058,175.53689)">
<rect
   id="rect1112"
   height="520"
   width="650"
   ry="0"
   rx="0"
   y="-260"
   x="-325"
   style="opacity:1;fill:#3c74c4;fill-opacity:0;fill-rule:nonzero;stroke:none;stroke-width:1;stroke-linecap:butt;stroke-linejoin:miter;stroke-miterlimit:4;stroke-dasharray:none;stroke-dashoffset:0;paint-order:stroke" />
</g>
<g
   id="logo-logo"
   transform="matrix(1.4357864,0,0,1.4357864,324.94058,157.1489)">
<g
   id="g1131"
   style="paint-order:stroke">
		<g
   id="g1117"
   transform="matrix(0.27,0,0,-0.27,-84.68,-14.25)">
<path
   id="path1115"
   d="m 665.527,856.887 -36.054,44.851 20.82,53.649 56.863,8.801 36.059,-44.856 -20.817,-53.652 -56.871,-8.793"
   transform="translate(-686.344,-910.5375)"
   style="opacity:1;fill:#ffffff;fill-opacity:0;fill-rule:nonzero;stroke:none;stroke-width:1;stroke-linecap:butt;stroke-linejoin:miter;stroke-miterlimit:4;stroke-dasharray:none;stroke-dashoffset:0;paint-order:stroke" />
</g>
		<g
   id="g1121"
   transform="matrix(0.27,0,0,-0.27,-52.99,0.56)">
<path
   id="path1119"
   d="m 792.797,832.297 -16.195,20.144 9.351,24.11 25.547,3.949 16.195,-20.148 -9.351,-24.098 -25.547,-3.957"
   transform="translate(-802.1485,-856.3985)"
   style="opacity:1;fill:#ffffff;fill-opacity:0;fill-rule:nonzero;stroke:none;stroke-width:1;stroke-linecap:butt;stroke-linejoin:miter;stroke-miterlimit:4;stroke-dasharray:none;stroke-dashoffset:0;paint-order:stroke" />
</g>
		<g
   id="g1125"
   transform="matrix(0.27,0,0,-0.27,-34.02,9.41)">
<path
   id="path1123"
   d="m 862.129,799.926 -16.191,20.144 9.351,24.102 25.551,3.957 16.191,-20.16 -9.351,-24.09 -25.551,-3.953"
   transform="translate(-871.4845,-824.0275)"
   style="opacity:1;fill:#ffffff;fill-opacity:0;fill-rule:nonzero;stroke:none;stroke-width:1;stroke-linecap:butt;stroke-linejoin:miter;stroke-miterlimit:4;stroke-dasharray:none;stroke-dashoffset:0;paint-order:stroke" />
</g>
		<g
   id="g1129"
   transform="scale(0.27,-0.27)">
<path
   id="path1127"
   d="m 1320.85,634.254 c -25.27,2.168 -55.52,25.578 -83.89,18.656 -20.9,-37.859 36.35,-69.113 33.72,-82.328 -39.09,22.445 -98.52,17.082 -142.88,84.473 -2.93,4.445 -7.45,7.531 -10.95,11.437 -3.52,3.91 -6.87,7.91 -10.07,12.055 -17.6,22.906 -17.99,45.18 -5.29,60.406 3.17,3.805 7.17,7.168 11.91,10.008 54.41,21.246 118.83,-1.25 169.79,-25.527 4.35,-2.871 8.51,-6.051 12.44,-9.598 3.94,-3.551 7.63,-7.461 11.05,-11.805 4.19,-4.285 8.54,-8.468 13.02,-12.488 -3.11,-4.785 -7.45,-6.867 -12.31,-8.012 -4.86,-1.156 -10.22,-1.383 -15.38,-2.476 2.87,-3.02 5.85,-5.895 8.84,-8.703 8.98,-8.426 18.11,-16.305 25.44,-25.528 3.44,-4.011 6.74,-8.152 9.92,-12.445 -4.98,0.75 -10.12,1.367 -15.36,1.875 z m -313.11,185.43 c 3.86,-11.356 8.11,-23.797 12.71,-37.344 -8.31,-18.695 -16.74,-37.652 -25.661,-57.715 -12.234,-4.137 -24.461,-8.242 -40.285,-13.574 4.637,-17.172 8.758,-32.481 12.844,-47.653 23.457,-11.449 44.992,-21.992 70.732,-34.578 -91.853,-45.902 -222.521,13.993 -244.58,109.301 -101.953,35.152 -217.098,54.067 -284.359,156.363 -23.297,35.434 -42.731,73.403 -66.899,115.376 81.395,37.73 158.66,48.62 233,23.02 72.363,-24.9 139.235,-65.743 213.696,-102.122 73.722,45.23 196.252,-9.449 238.012,-115.531 -41.23,6.082 -80.1,53.238 -119.21,4.457 z m -222.838,-272.879 -18.007,8.035 -13.204,-14.649 2.075,19.602 -18.008,8.035 19.289,4.094 2.074,19.613 9.848,-17.09 19.289,4.086 -13.203,-14.636 z m -216.011,144.613 -28.75,12.816 -21.063,-23.379 3.309,31.301 -28.742,12.813 30.785,6.531 3.304,31.297 15.719,-27.262 30.789,6.516 -21.074,-23.371 z m 177.707,482.122 26.285,-9.31 16.972,22.11 -0.738,-27.87 26.289,-9.31 -26.738,-7.91 -0.734,-27.88 -15.789,22.99 -26.739,-7.93 16.977,22.12 z m 273.612,-126.46 11.24,30.87 9.05,-31.59 32.85,-1.16 -27.25,-18.36 9.04,-31.594 -25.89,20.234 -27.25,-18.363 11.26,30.883 -25.901,20.23 z m 485.36,-459.236 c 22.99,-3.977 44.71,-5.227 67.68,0.004 4.99,1.484 9.85,3.332 14.56,5.543 14.06,6.644 26.48,16.629 35.68,30.093 -76.66,-33.789 -151.56,6.868 -193.75,69.192 -5.56,4.074 -11.15,8.039 -16.83,11.902 -73.68,50.219 -156.97,82.371 -253.06,90.414 -0.19,3.985 -0.4,7.934 -0.63,11.863 6.91,45.836 5.89,93.665 -4.29,141.676 C 1109.4,1163.38 898.324,1300.63 683.477,1255.09 468.629,1209.57 331.379,998.484 376.91,783.641 422.441,568.797 633.523,431.539 848.363,477.078 c 90.914,19.258 167.937,68.184 223.077,134.481 24.04,-18.059 47.21,-34.536 69.41,-49.383 5.63,-3.75 11.19,-7.414 16.69,-10.957 26.65,-23.098 56.96,-30.489 88.99,-33.84 6.4,-0.672 12.89,-1.18 19.41,-1.609 23.88,-1.008 50.17,-0.625 71.26,-14.836 16.96,-9.571 27.89,-28.067 35.3,-47.871 8.78,31.796 -17.46,60.304 -41.8,76.933 -5.17,2.942 -9.06,6.067 -12.21,9.836 -3.14,3.758 -5.53,8.164 -7.63,13.641 7.66,3.312 15.26,5.156 22.8,5.812 7.53,0.645 15,0.078 22.41,-1.328 4.93,-0.937 9.83,-2.246 14.75,-3.828 12.59,-3.77 24.76,-8.723 36.51,-14.551 5.87,-2.922 11.65,-6.066 17.26,-9.414 4.95,-3.098 9.7,-6.465 14.38,-9.98 35.3,-29.7 76.81,-59.903 124.91,-47.754 20.13,6.211 40.55,20.293 37.65,43.074 0.13,-9.715 -10.68,-13.965 -18.82,-14.59 -6.48,-0.828 -13.22,-0.43 -19.96,0.754 -53.81,0.059 -57.42,53.887 -78.06,89.539 -3.48,4.555 -7.37,9.094 -11.36,14.102 5.52,-4.188 11.49,-7.797 17.79,-10.809 4.59,-3.184 9.45,-5.27 14.45,-6.656"
   transform="translate(-995.83931,-858.43872)"
   style="opacity:1;fill:#ffffff;fill-rule:nonzero;stroke:none;stroke-width:1;stroke-linecap:butt;stroke-linejoin:miter;stroke-miterlimit:4;stroke-dasharray:none;stroke-dashoffset:0;paint-order:stroke" />
</g>
</g>
</g>
<g
   id="text-logo-path"
   transform="matrix(1.969278,0,0,1.969278,324.34009,433.50703)">
<path
   id="path1134"
   d="m 34.49,-13.9 v 0 q 0,6.84 -4.65,10.73 -4.64,3.89 -12.92,3.89 v 0 q -8.28,0 -13.61,-2.66 v 0 -7.35 q 2.88,1.3 6.55,2.34 3.68,1.05 7.42,1.05 v 0 q 4.68,0 7.02,-2.02 2.34,-2.02 2.34,-5.4 v 0 q 0,-2.38 -1.04,-4 -1.05,-1.62 -3.39,-3.02 -2.34,-1.4 -6.23,-2.92 v 0 q -3.67,-1.51 -6.37,-3.45 -2.7,-1.95 -4.21,-4.83 -1.51,-2.88 -1.51,-7.05 v 0 q 0,-6.34 4.43,-9.94 4.42,-3.6 11.62,-3.6 v 0 q 3.96,0 7.42,0.87 3.46,0.86 6.41,2.23 v 0 l -2.52,6.41 q -2.74,-1.23 -5.69,-2.02 -2.95,-0.79 -5.83,-0.79 v 0 q -3.96,0 -5.94,1.87 -1.98,1.87 -1.98,4.9 v 0 q 0,2.37 1.01,3.96 1,1.58 3.24,2.91 2.23,1.33 5.9,2.92 v 0 q 4.03,1.73 6.84,3.63 2.81,1.91 4.25,4.61 1.44,2.7 1.44,6.73 z M 58.03,0.72 v 0 q -7.7,0 -12.38,-4.79 -4.68,-4.79 -4.68,-15.08 v 0 q 0,-7.2 2.27,-11.67 2.26,-4.46 6.26,-6.58 4,-2.13 9.11,-2.13 v 0 q 3.02,0 5.79,0.65 2.78,0.65 4.58,1.58 v 0 l -2.38,6.12 q -1.87,-0.79 -3.92,-1.33 -2.06,-0.54 -4,-0.54 v 0 q -9.65,0 -9.65,13.83 v 0 q 0,6.62 2.41,10.08 2.42,3.45 7.02,3.45 v 0 q 2.96,0 5.26,-0.72 2.3,-0.72 4.39,-1.87 v 0 6.62 q -2.01,1.23 -4.39,1.8 -2.38,0.58 -5.69,0.58 z m 37.01,-40.25 v 0 q 0.94,0 2.09,0.11 1.15,0.11 1.94,0.25 v 0 l -0.79,7.13 q -0.79,-0.22 -1.84,-0.36 -1.04,-0.14 -1.98,-0.14 v 0 q -2.59,0 -4.93,1.44 -2.34,1.44 -3.78,4.14 -1.44,2.7 -1.44,6.51 v 0 V 0 h -7.77 v -38.81 h 6.12 l 1,6.91 h 0.44 q 1.65,-3.09 4.46,-5.36 2.81,-2.27 6.48,-2.27 z m 14.54,-14.04 v 0 q 1.8,0 3.1,1.01 1.3,1.01 1.3,3.38 v 0 q 0,2.31 -1.3,3.35 -1.3,1.05 -3.1,1.05 v 0 q -1.8,0 -3.09,-1.05 -1.3,-1.04 -1.3,-3.35 v 0 q 0,-2.37 1.3,-3.38 1.29,-1.01 3.09,-1.01 z m -3.96,14.76 h 7.85 V 0 h -7.85 z m 37.52,-0.72 v 0 q 6.62,0 10.54,5.04 3.93,5.04 3.93,15.05 v 0 q 0,9.86 -4.07,15.01 -4.07,5.15 -10.55,5.15 v 0 q -4.17,0 -6.73,-1.62 -2.56,-1.62 -4.07,-3.85 v 0 h -0.43 q 0.14,1.29 0.29,3.06 0.14,1.76 0.14,3.13 v 0 15.84 h -7.77 v -56.09 h 6.33 l 1.08,5.19 h 0.36 q 1.59,-2.45 4.14,-4.18 2.56,-1.73 6.81,-1.73 z m -2.09,6.27 v 0 q -4.83,0 -6.84,3.09 -2.02,3.1 -2.02,9.51 v 0 1.15 q 0,6.77 1.91,10.37 1.91,3.6 7.09,3.6 v 0 q 4.25,0 6.34,-3.89 2.09,-3.89 2.09,-10.15 v 0 q 0,-6.34 -2.09,-10.01 -2.09,-3.67 -6.48,-3.67 z m 39.24,27.79 v 0 q 3.09,0 5.47,-0.94 v 0 5.76 q -1.22,0.58 -3.2,0.97 -1.98,0.4 -4.14,0.4 v 0 q -3.1,0 -5.58,-1.08 -2.49,-1.08 -4,-3.74 -1.51,-2.67 -1.51,-7.42 v 0 -21.46 h -4.97 v -3.45 l 5.4,-2.88 2.59,-8.21 h 4.83 v 8.71 h 10.29 v 5.83 h -10.29 v 21.32 q 0,3.16 1.44,4.68 1.44,1.51 3.67,1.51 z m 13.46,-45.94 h 13.9 q 9.43,0 13.79,4.07 4.35,4.07 4.35,11.34 v 0 q 0,4.32 -1.76,8.06 -1.77,3.75 -5.91,6.09 -4.14,2.34 -11.34,2.34 v 0 h -5.04 V 0 h -7.99 z m 13.47,6.55 v 0 h -5.48 v 18.8 h 4.25 q 5.69,0 8.68,-2.2 2.99,-2.2 2.99,-7.45 v 0 q 0,-4.61 -2.52,-6.88 -2.52,-2.27 -7.92,-2.27 z m 31.24,-8.71 v 0 q 1.8,0 3.1,1.01 1.3,1.01 1.3,3.38 v 0 q 0,2.31 -1.3,3.35 -1.3,1.05 -3.1,1.05 v 0 q -1.8,0 -3.09,-1.05 -1.3,-1.04 -1.3,-3.35 v 0 q 0,-2.37 1.3,-3.38 1.29,-1.01 3.09,-1.01 z m -3.96,14.76 h 7.85 V 0 h -7.85 z m 26.57,-15.91 V 0 h -7.77 v -54.72 z m 43.56,35.28 v 0 q 0,9.65 -4.71,14.9 -4.72,5.26 -12.78,5.26 v 0 q -4.97,0 -8.82,-2.34 -3.86,-2.34 -6.09,-6.84 -2.23,-4.5 -2.23,-10.98 v 0 q 0,-9.65 4.64,-14.87 4.65,-5.22 12.71,-5.22 v 0 q 5.04,0 8.93,2.34 3.89,2.34 6.12,6.81 2.23,4.46 2.23,10.94 z m -26.57,0 v 0 q 0,6.55 2.16,10.22 2.16,3.68 7.06,3.68 v 0 q 4.9,0 7.09,-3.68 2.2,-3.67 2.2,-10.22 v 0 q 0,-6.62 -2.23,-10.19 -2.24,-3.56 -7.13,-3.56 v 0 q -4.83,0 -6.99,3.56 -2.16,3.57 -2.16,10.19 z m 49.18,13.97 v 0 q 3.1,0 5.47,-0.94 v 0 5.76 q -1.22,0.58 -3.2,0.97 -1.98,0.4 -4.14,0.4 v 0 q -3.1,0 -5.58,-1.08 -2.49,-1.08 -4,-3.74 -1.51,-2.67 -1.51,-7.42 v 0 -21.46 h -4.97 v -3.45 l 5.4,-2.88 2.59,-8.21 h 4.83 v 8.71 h 10.29 v 5.83 h -10.29 v 21.32 q 0,3.16 1.44,4.68 1.44,1.51 3.67,1.51 z"
   transform="translate(-168.01,18.72)"
   style="opacity:1;fill:#ffffff;fill-rule:nonzero;stroke:none;stroke-width:1;stroke-linecap:butt;stroke-linejoin:miter;stroke-miterlimit:4;stroke-dasharray:none;stroke-dashoffset:0;paint-order:stroke" />
</g>
</svg>