<?xml version="1.0" encoding="UTF-8" standalone="no" ?>
<!DOCTYPE svg PUBLIC "-//W3C//DTD SVG 1.1//EN" "http://www.w3.org/Graphics/SVG/1.1/DTD/svg11.dtd">
<svg xmlns="http://www.w3.org/2000/svg" xmlns:xlink="http://www.w3.org/1999/xlink" version="1.1" width="1280" height="1024" viewBox="0 0 1280 1024" xml:space="preserve">
<desc>Created with Fabric.js 3.6.3</desc>
<defs>
</defs>
<g transform="matrix(1.9692780337941629 0 0 1.9692780337941629 640.0153846153846 512.012312418764)" id="background-logo"  >
<rect style="stroke: none; stroke-width: 1; stroke-dasharray: none; stroke-linecap: butt; stroke-dashoffset: 0; stroke-linejoin: miter; stroke-miterlimit: 4; fill: rgb(60,116,196); fill-opacity: 0; fill-rule: nonzero; opacity: 1;"  paint-order="stroke"  x="-325" y="-260" rx="0" ry="0" width="650" height="520" />
</g>
<g transform="matrix(1.4357863850372083 0 0 1.4357863850372083 640.0153846153846 493.62431823171653)" id="logo-logo"  >
<g style=""  paint-order="stroke"   >
		<g transform="matrix(0.27 0 0 -0.27 -84.67999999999998 -14.249999999999943)"  >
<path style="stroke: none; stroke-width: 1; stroke-dasharray: none; stroke-linecap: butt; stroke-dashoffset: 0; stroke-linejoin: miter; stroke-miterlimit: 4; fill: rgb(255,255,255); fill-opacity: 0; fill-rule: nonzero; opacity: 1;"  paint-order="stroke"  transform=" translate(-686.344, -910.5374999999999)" d="m 665.527 856.887 l -36.054 44.851 l 20.82 53.649 l 56.863 8.801 l 36.059 -44.856 l -20.817 -53.652 l -56.871 -8.793" stroke-linecap="round" />
</g>
		<g transform="matrix(0.27 0 0 -0.27 -52.99000000000001 0.5600000000000591)"  >
<path style="stroke: none; stroke-width: 1; stroke-dasharray: none; stroke-linecap: butt; stroke-dashoffset: 0; stroke-linejoin: miter; stroke-miterlimit: 4; fill: rgb(255,255,255); fill-opacity: 0; fill-rule: nonzero; opacity: 1;"  paint-order="stroke"  transform=" translate(-802.1485, -856.3985)" d="m 792.797 832.297 l -16.195 20.144 l 9.351 24.11 l 25.547 3.949 l 16.195 -20.148 l -9.351 -24.098 l -25.547 -3.957" stroke-linecap="round" />
</g>
		<g transform="matrix(0.27 0 0 -0.27 -34.01999999999998 9.410000000000082)"  >
<path style="stroke: none; stroke-width: 1; stroke-dasharray: none; stroke-linecap: butt; stroke-dashoffset: 0; stroke-linejoin: miter; stroke-miterlimit: 4; fill: rgb(255,255,255); fill-opacity: 0; fill-rule: nonzero; opacity: 1;"  paint-order="stroke"  transform=" translate(-871.4845, -824.0275)" d="m 862.129 799.926 l -16.191 20.144 l 9.351 24.102 l 25.551 3.957 l 16.191 -20.16 l -9.351 -24.09 l -25.551 -3.953" stroke-linecap="round" />
</g>
		<g transform="matrix(0.27 0 0 -0.27 0 2.842171e-14)"  >
<path style="stroke: none; stroke-width: 1; stroke-dasharray: none; stroke-linecap: butt; stroke-dashoffset: 0; stroke-linejoin: miter; stroke-miterlimit: 4; fill: rgb(255,255,255); fill-rule: nonzero; opacity: 1;"  paint-order="stroke"  transform=" translate(-995.8393078399868, -858.4387214337193)" d="m 1320.85 634.254 c -25.27 2.168 -55.52 25.578 -83.89 18.656 c -20.9 -37.859 36.35 -69.113 33.72 -82.328 c -39.09 22.445 -98.52 17.082 -142.88 84.473 c -2.93 4.445 -7.45 7.531 -10.95 11.437 c -3.52 3.91 -6.87 7.91 -10.07 12.055 c -17.6 22.906 -17.99 45.18 -5.29 60.406 c 3.17 3.805 7.17 7.168 11.91 10.008 c 54.41 21.246 118.83 -1.25 169.79 -25.527 c 4.35 -2.871 8.51 -6.051 12.44 -9.598 c 3.94 -3.551 7.63 -7.461 11.05 -11.805 c 4.19 -4.285 8.54 -8.468 13.02 -12.488 c -3.11 -4.785 -7.45 -6.867 -12.31 -8.012 c -4.86 -1.156 -10.22 -1.383 -15.38 -2.476 c 2.87 -3.02 5.85 -5.895 8.84 -8.703 c 8.98 -8.426 18.11 -16.305 25.44 -25.528 c 3.44 -4.011 6.74 -8.152 9.92 -12.445 c -4.98 0.75 -10.12 1.367 -15.36 1.875 z m -313.11 185.43 c 3.86 -11.356 8.11 -23.797 12.71 -37.344 c -8.31 -18.695 -16.74 -37.652 -25.661 -57.715 c -12.234 -4.137 -24.461 -8.242 -40.285 -13.574 c 4.637 -17.172 8.758 -32.481 12.844 -47.653 c 23.457 -11.449 44.992 -21.992 70.732 -34.578 c -91.853 -45.902 -222.521 13.993 -244.58 109.301 c -101.953 35.152 -217.098 54.067 -284.359 156.363 c -23.297 35.434 -42.731 73.403 -66.899 115.376 c 81.395 37.73 158.66 48.62 233 23.02 c 72.363 -24.9 139.235 -65.743 213.696 -102.122 c 73.722 45.23 196.252 -9.449 238.012 -115.531 c -41.23 6.082 -80.1 53.238 -119.21 4.457 z m -222.838 -272.879 l -18.007 8.035 l -13.204 -14.649 l 2.075 19.602 l -18.008 8.035 l 19.289 4.094 l 2.074 19.613 l 9.848 -17.09 l 19.289 4.086 l -13.203 -14.636 z m -216.011 144.613 l -28.75 12.816 l -21.063 -23.379 l 3.309 31.301 l -28.742 12.813 l 30.785 6.531 l 3.304 31.297 l 15.719 -27.262 l 30.789 6.516 l -21.074 -23.371 z m 177.707 482.122 l 26.285 -9.31 l 16.972 22.11 l -0.738 -27.87 l 26.289 -9.31 l -26.738 -7.91 l -0.734 -27.88 l -15.789 22.99 l -26.739 -7.93 l 16.977 22.12 z m 273.612 -126.46 l 11.24 30.87 l 9.05 -31.59 l 32.85 -1.16 l -27.25 -18.36 l 9.04 -31.594 l -25.89 20.234 l -27.25 -18.363 l 11.26 30.883 l -25.901 20.23 z m 485.36 -459.236 c 22.99 -3.977 44.71 -5.227 67.68 0.004 c 4.99 1.484 9.85 3.332 14.56 5.543 c 14.06 6.644 26.48 16.629 35.68 30.093 c -76.66 -33.789 -151.56 6.868 -193.75 69.192 c -5.56 4.074 -11.15 8.039 -16.83 11.902 c -73.68 50.219 -156.97 82.371 -253.06 90.414 c -0.19 3.985 -0.4 7.934 -0.63 11.863 c 6.91 45.836 5.89 93.665 -4.29 141.676 C 1109.4 1163.38 898.324 1300.63 683.477 1255.09 C 468.629 1209.57 331.379 998.484 376.91 783.641 C 422.441 568.797 633.523 431.539 848.363 477.078 c 90.914 19.258 167.937 68.184 223.077 134.481 c 24.04 -18.059 47.21 -34.536 69.41 -49.383 c 5.63 -3.75 11.19 -7.414 16.69 -10.957 c 26.65 -23.098 56.96 -30.489 88.99 -33.84 c 6.4 -0.672 12.89 -1.18 19.41 -1.609 c 23.88 -1.008 50.17 -0.625 71.26 -14.836 c 16.96 -9.571 27.89 -28.067 35.3 -47.871 c 8.78 31.796 -17.46 60.304 -41.8 76.933 c -5.17 2.942 -9.06 6.067 -12.21 9.836 c -3.14 3.758 -5.53 8.164 -7.63 13.641 c 7.66 3.312 15.26 5.156 22.8 5.812 c 7.53 0.645 15 0.078 22.41 -1.328 c 4.93 -0.937 9.83 -2.246 14.75 -3.828 c 12.59 -3.77 24.76 -8.723 36.51 -14.551 c 5.87 -2.922 11.65 -6.066 17.26 -9.414 c 4.95 -3.098 9.7 -6.465 14.38 -9.98 c 35.3 -29.7 76.81 -59.903 124.91 -47.754 c 20.13 6.211 40.55 20.293 37.65 43.074 c 0.13 -9.715 -10.68 -13.965 -18.82 -14.59 c -6.48 -0.828 -13.22 -0.43 -19.96 0.754 c -53.81 0.059 -57.42 53.887 -78.06 89.539 c -3.48 4.555 -7.37 9.094 -11.36 14.102 c 5.52 -4.188 11.49 -7.797 17.79 -10.809 c 4.59 -3.184 9.45 -5.27 14.45 -6.656" stroke-linecap="round" />
</g>
</g>
</g>
<g transform="matrix(1.9692780337941629 0 0 1.9692780337941629 639.4148912791286 769.9824536459977)" id="text-logo-path"  >
<path style="stroke: none; stroke-width: 1; stroke-dasharray: none; stroke-linecap: butt; stroke-dashoffset: 0; stroke-linejoin: miter; stroke-miterlimit: 4; fill: rgb(255,255,255); fill-rule: nonzero; opacity: 1;"  paint-order="stroke"  transform=" translate(-168.01, 18.72)" d="M 34.49 -13.9 L 34.49 -13.9 Q 34.49 -7.06 29.84 -3.17 Q 25.2 0.72 16.92 0.72 L 16.92 0.72 Q 8.64 0.72 3.31 -1.94 L 3.31 -1.94 L 3.31 -9.29 Q 6.19 -7.99 9.86 -6.95 Q 13.54 -5.9 17.28 -5.9 L 17.28 -5.9 Q 21.96 -5.9 24.3 -7.92 Q 26.64 -9.94 26.64 -13.32 L 26.64 -13.32 Q 26.64 -15.7 25.6 -17.32 Q 24.55 -18.94 22.21 -20.34 Q 19.87 -21.74 15.98 -23.26 L 15.98 -23.26 Q 12.31 -24.77 9.61 -26.71 Q 6.91 -28.66 5.4 -31.54 Q 3.89 -34.42 3.89 -38.59 L 3.89 -38.59 Q 3.89 -44.93 8.32 -48.53 Q 12.74 -52.13 19.94 -52.13 L 19.94 -52.13 Q 23.9 -52.13 27.36 -51.26 Q 30.82 -50.4 33.77 -49.03 L 33.77 -49.03 L 31.25 -42.62 Q 28.51 -43.85 25.56 -44.64 Q 22.61 -45.43 19.73 -45.43 L 19.73 -45.43 Q 15.77 -45.43 13.79 -43.56 Q 11.81 -41.69 11.81 -38.66 L 11.81 -38.66 Q 11.81 -36.29 12.82 -34.7 Q 13.82 -33.12 16.06 -31.79 Q 18.29 -30.46 21.96 -28.87 L 21.96 -28.87 Q 25.99 -27.14 28.8 -25.24 Q 31.61 -23.33 33.05 -20.63 Q 34.49 -17.93 34.49 -13.9 Z M 58.03 0.72 L 58.03 0.72 Q 50.33 0.72 45.65 -4.07 Q 40.97 -8.86 40.97 -19.15 L 40.97 -19.15 Q 40.97 -26.35 43.24 -30.82 Q 45.5 -35.28 49.5 -37.4 Q 53.5 -39.53 58.61 -39.53 L 58.61 -39.53 Q 61.63 -39.53 64.4 -38.88 Q 67.18 -38.23 68.98 -37.3 L 68.98 -37.3 L 66.6 -31.18 Q 64.73 -31.97 62.68 -32.51 Q 60.62 -33.05 58.68 -33.05 L 58.68 -33.05 Q 49.03 -33.05 49.03 -19.22 L 49.03 -19.22 Q 49.03 -12.6 51.44 -9.14 Q 53.86 -5.69 58.46 -5.69 L 58.46 -5.69 Q 61.42 -5.69 63.72 -6.41 Q 66.02 -7.13 68.11 -8.28 L 68.11 -8.28 L 68.11 -1.66 Q 66.1 -0.43 63.72 0.14 Q 61.34 0.72 58.03 0.72 Z M 95.04 -39.53 L 95.04 -39.53 Q 95.98 -39.53 97.13 -39.42 Q 98.28 -39.31 99.07 -39.17 L 99.07 -39.17 L 98.28 -32.04 Q 97.49 -32.26 96.44 -32.4 Q 95.4 -32.54 94.46 -32.54 L 94.46 -32.54 Q 91.87 -32.54 89.53 -31.1 Q 87.19 -29.66 85.75 -26.96 Q 84.31 -24.26 84.31 -20.45 L 84.31 -20.45 L 84.31 0 L 76.54 0 L 76.54 -38.81 L 82.66 -38.81 L 83.66 -31.9 L 84.1 -31.9 Q 85.75 -34.99 88.56 -37.26 Q 91.37 -39.53 95.04 -39.53 Z M 109.58 -53.57 L 109.58 -53.57 Q 111.38 -53.57 112.68 -52.56 Q 113.98 -51.55 113.98 -49.18 L 113.98 -49.18 Q 113.98 -46.87 112.68 -45.83 Q 111.38 -44.78 109.58 -44.78 L 109.58 -44.78 Q 107.78 -44.78 106.49 -45.83 Q 105.19 -46.87 105.19 -49.18 L 105.19 -49.18 Q 105.19 -51.55 106.49 -52.56 Q 107.78 -53.57 109.58 -53.57 Z M 105.62 -38.81 L 113.47 -38.81 L 113.47 0 L 105.62 0 L 105.62 -38.81 Z M 143.14 -39.53 L 143.14 -39.53 Q 149.76 -39.53 153.68 -34.49 Q 157.61 -29.45 157.61 -19.44 L 157.61 -19.44 Q 157.61 -9.58 153.54 -4.43 Q 149.47 0.72 142.99 0.72 L 142.99 0.72 Q 138.82 0.72 136.26 -0.9 Q 133.7 -2.52 132.19 -4.75 L 132.19 -4.75 L 131.76 -4.75 Q 131.9 -3.46 132.05 -1.69 Q 132.19 0.07 132.19 1.44 L 132.19 1.44 L 132.19 17.28 L 124.42 17.28 L 124.42 -38.81 L 130.75 -38.81 L 131.83 -33.62 L 132.19 -33.62 Q 133.78 -36.07 136.33 -37.8 Q 138.89 -39.53 143.14 -39.53 Z M 141.05 -33.26 L 141.05 -33.26 Q 136.22 -33.26 134.21 -30.17 Q 132.19 -27.07 132.19 -20.66 L 132.19 -20.66 L 132.19 -19.51 Q 132.19 -12.74 134.1 -9.14 Q 136.01 -5.54 141.19 -5.54 L 141.19 -5.54 Q 145.44 -5.54 147.53 -9.43 Q 149.62 -13.32 149.62 -19.58 L 149.62 -19.58 Q 149.62 -25.92 147.53 -29.59 Q 145.44 -33.26 141.05 -33.26 Z M 180.29 -5.47 L 180.29 -5.47 Q 183.38 -5.47 185.76 -6.41 L 185.76 -6.41 L 185.76 -0.65 Q 184.54 -0.07 182.56 0.32 Q 180.58 0.72 178.42 0.72 L 178.42 0.72 Q 175.32 0.72 172.84 -0.36 Q 170.35 -1.44 168.84 -4.1 Q 167.33 -6.77 167.33 -11.52 L 167.33 -11.52 L 167.33 -32.98 L 162.36 -32.98 L 162.36 -36.43 L 167.76 -39.31 L 170.35 -47.52 L 175.18 -47.52 L 175.18 -38.81 L 185.47 -38.81 L 185.47 -32.98 L 175.18 -32.98 L 175.18 -11.66 Q 175.18 -8.5 176.62 -6.98 Q 178.06 -5.47 180.29 -5.47 Z M 193.75 -51.41 L 207.65 -51.41 Q 217.08 -51.41 221.44 -47.34 Q 225.79 -43.27 225.79 -36 L 225.79 -36 Q 225.79 -31.68 224.03 -27.94 Q 222.26 -24.19 218.12 -21.85 Q 213.98 -19.51 206.78 -19.51 L 206.78 -19.51 L 201.74 -19.51 L 201.74 0 L 193.75 0 L 193.75 -51.41 Z M 207.22 -44.86 L 207.22 -44.86 L 201.74 -44.86 L 201.74 -26.06 L 205.99 -26.06 Q 211.68 -26.06 214.67 -28.26 Q 217.66 -30.46 217.66 -35.71 L 217.66 -35.71 Q 217.66 -40.32 215.14 -42.59 Q 212.62 -44.86 207.22 -44.86 Z M 238.46 -53.57 L 238.46 -53.57 Q 240.26 -53.57 241.56 -52.56 Q 242.86 -51.55 242.86 -49.18 L 242.86 -49.18 Q 242.86 -46.87 241.56 -45.83 Q 240.26 -44.78 238.46 -44.78 L 238.46 -44.78 Q 236.66 -44.78 235.37 -45.83 Q 234.07 -46.87 234.07 -49.18 L 234.07 -49.18 Q 234.07 -51.55 235.37 -52.56 Q 236.66 -53.57 238.46 -53.57 Z M 234.5 -38.81 L 242.35 -38.81 L 242.35 0 L 234.5 0 L 234.5 -38.81 Z M 261.07 -54.72 L 261.07 0 L 253.3 0 L 253.3 -54.72 L 261.07 -54.72 Z M 304.63 -19.44 L 304.63 -19.44 Q 304.63 -9.79 299.92 -4.54 Q 295.2 0.72 287.14 0.72 L 287.14 0.72 Q 282.17 0.72 278.32 -1.62 Q 274.46 -3.96 272.23 -8.46 Q 270 -12.96 270 -19.44 L 270 -19.44 Q 270 -29.09 274.64 -34.31 Q 279.29 -39.53 287.35 -39.53 L 287.35 -39.53 Q 292.39 -39.53 296.28 -37.19 Q 300.17 -34.85 302.4 -30.38 Q 304.63 -25.92 304.63 -19.44 Z M 278.06 -19.44 L 278.06 -19.44 Q 278.06 -12.89 280.22 -9.22 Q 282.38 -5.54 287.28 -5.54 L 287.28 -5.54 Q 292.18 -5.54 294.37 -9.22 Q 296.57 -12.89 296.57 -19.44 L 296.57 -19.44 Q 296.57 -26.06 294.34 -29.63 Q 292.1 -33.19 287.21 -33.19 L 287.21 -33.19 Q 282.38 -33.19 280.22 -29.63 Q 278.06 -26.06 278.06 -19.44 Z M 327.24 -5.47 L 327.24 -5.47 Q 330.34 -5.47 332.71 -6.41 L 332.71 -6.41 L 332.71 -0.65 Q 331.49 -0.07 329.51 0.32 Q 327.53 0.72 325.37 0.72 L 325.37 0.72 Q 322.27 0.72 319.79 -0.36 Q 317.3 -1.44 315.79 -4.1 Q 314.28 -6.77 314.28 -11.52 L 314.28 -11.52 L 314.28 -32.98 L 309.31 -32.98 L 309.31 -36.43 L 314.71 -39.31 L 317.3 -47.52 L 322.13 -47.52 L 322.13 -38.81 L 332.42 -38.81 L 332.42 -32.98 L 322.13 -32.98 L 322.13 -11.66 Q 322.13 -8.5 323.57 -6.98 Q 325.01 -5.47 327.24 -5.47 Z" stroke-linecap="round" />
</g>
</svg>